<svg width="158" height="151" viewBox="0 0 158 151" fill="none" xmlns="http://www.w3.org/2000/svg">
<path d="M17.3771 79.5599C17.1542 81.1161 15.5247 82.1677 13.9686 81.9448C13.6478 81.8989 13.3458 81.8071 13.0607 81.6815L13.8654 76.0628C12.4771 76.2761 11.4518 77.1718 11.2357 78.6804C10.9891 80.4029 12.1628 82.1954 13.8971 82.4437C15.7265 82.7057 17.2339 81.4063 17.4959 79.5769C17.8004 77.4506 15.9916 76.537 15.9916 76.537L15.8983 76.6812C16.9231 77.228 17.5557 78.3127 17.3771 79.5599ZM11.3664 78.6991C11.5382 77.4994 12.5075 76.826 13.6683 76.5922L12.947 81.6288C11.8475 81.0956 11.1827 79.9821 11.3664 78.6991Z" fill="black"/>
<path d="M14.2411 67.756L14.4011 67.8074C14.5296 67.4076 14.8304 67.1387 15.3281 67.5509C15.3281 67.5509 19.1757 70.7167 19.2638 70.7954L14.1893 71.0923C13.5598 71.1294 13.4166 70.869 13.5048 70.5949L13.3448 70.5434L12.7824 72.2533L12.9538 72.3084C13.0823 71.9086 13.4932 71.65 14.024 71.6064L19.3372 71.2728L19.4401 70.9529C20.1259 71.5642 21.4032 72.8447 21.1755 73.553C21.0249 74.0213 20.4157 74.191 20.4157 74.191L20.8322 74.8165C20.8322 74.8165 21.5128 74.5816 21.7038 73.9875C21.9977 73.0736 20.7052 71.8009 19.4952 70.7816L15.3869 67.3681C14.9389 66.9972 14.7647 66.6764 14.93 66.1624L14.7701 66.1109L14.2411 67.756Z" fill="black"/>
<path d="M23.086 62.7283C22.3601 64.1226 20.4742 64.5749 19.0798 63.849C18.7924 63.6994 18.5378 63.5128 18.3105 63.2997L20.9314 58.2651C19.5508 58.0064 18.2867 58.5117 17.5829 59.8635C16.7795 61.4069 17.293 63.4871 18.847 64.2961C20.4862 65.1494 22.3391 64.4229 23.1924 62.7837C24.1842 60.8784 22.7804 59.417 22.7804 59.417L22.6445 59.5221C23.4303 60.3776 23.6678 61.6106 23.086 62.7283ZM17.7 59.9245C18.2597 58.8494 19.3973 58.5352 20.5701 58.6993L18.2207 63.2124C17.36 62.345 17.1016 61.0741 17.7 59.9245Z" fill="black"/>
<path d="M23.4201 51.0899C22.5724 52.2242 22.538 53.1722 22.606 53.6425L21.9332 53.1397L21.0927 54.2643L21.2369 54.372C21.4811 54.0452 21.9775 53.802 22.4197 54.1324L25.6878 56.5748C26.13 56.9053 26.0373 57.4503 25.7931 57.7771L25.9373 57.8848L27.3237 56.0297L27.1795 55.9219C26.9281 56.2583 26.4317 56.5016 25.9896 56.1711L23.0001 53.937C22.6867 53.0736 22.8314 52.1181 23.3343 51.4453C23.7797 50.8493 24.5261 50.8528 24.5261 50.8528L24.0166 50.4721C24.0166 50.4721 23.7505 50.6477 23.4201 51.0899Z" fill="black"/>
<path d="M29.2246 44.7558C27.9636 45.9547 27.7738 48.0888 28.981 49.3586C30.2543 50.6979 32.2427 50.6123 33.582 49.339C34.843 48.1401 35.0328 46.0059 33.8339 44.7449C32.5605 43.4056 30.5639 43.4825 29.2246 44.7558ZM33.4993 49.2521C32.36 50.3352 30.4294 50.1506 29.3463 49.0113C28.1887 47.7938 28.1067 46.0007 29.3155 44.8514C30.4548 43.7683 32.3854 43.9529 33.4686 45.0922C34.6179 46.301 34.7169 48.0945 33.4993 49.2521Z" fill="black"/>
<path d="M37.7446 38.1311C36.2865 39.0806 35.7117 41.1446 36.6677 42.6128C37.6762 44.1614 39.6469 44.439 41.1955 43.4305C42.6536 42.4811 43.2284 40.417 42.2789 38.9589C41.2705 37.4103 39.2932 37.1227 37.7446 38.1311ZM41.13 43.33C39.8127 44.1878 37.9479 43.6551 37.0901 42.3378C36.1733 40.9299 36.4189 39.1519 37.8166 38.2417C39.134 37.3839 40.9988 37.9166 41.8566 39.2339C42.7668 40.6317 42.5379 42.4132 41.13 43.33Z" fill="black"/>
<path d="M57.3211 35.7641C56.9279 35.9117 56.3899 35.8444 56.1959 35.3276C55.9556 34.6873 55.6224 33.7997 55.3272 33.0133C54.741 31.4517 53.7085 30.7498 52.1581 31.3317C51.2369 31.6775 50.5209 32.4334 50.1742 33.3197C49.587 32.7455 48.8102 32.5884 47.8104 32.9638C46.9902 33.2716 46.3233 33.9193 45.9457 34.6891L45.6801 33.9813L44.3544 34.4789L44.4176 34.6474C44.8109 34.4998 45.36 34.5629 45.554 35.0796L46.9499 38.7983C47.1439 39.3151 46.7718 39.7239 46.3786 39.8715L46.4418 40.04L48.6101 39.2261L48.5469 39.0576C48.1649 39.201 47.6157 39.138 47.4217 38.6212L46.106 35.116C46.2925 34.2128 46.9018 33.4458 47.8567 33.0873C48.7667 32.7457 49.7612 32.8339 50.5076 34.8224C50.8154 35.6426 51.1401 36.5076 51.3763 37.1368C51.5703 37.6536 51.1982 38.0624 50.805 38.21L50.8683 38.3785L53.0365 37.5646L52.9733 37.3961C52.5913 37.5395 52.0421 37.4764 51.8482 36.9596C51.6078 36.3193 51.2746 35.4317 50.9794 34.6453C50.8276 34.2409 50.6435 33.887 50.4243 33.6104C50.5898 32.6511 51.2047 31.8306 52.2045 31.4553C53.1145 31.1137 54.1089 31.2019 54.8554 33.1904C55.1632 34.0106 55.4879 34.8756 55.7241 35.5048C55.9181 36.0215 55.546 36.4304 55.1528 36.578L55.2161 36.7465L57.3843 35.9326L57.3211 35.7641Z" fill="black"/>
<path d="M76.7807 34.823C76.3607 34.8201 75.8825 34.5649 75.8862 34.0129C75.8908 33.3289 75.8973 32.3809 75.903 31.5409C75.9143 29.873 75.2012 28.8481 73.5452 28.8369C72.5612 28.8302 71.6222 29.2799 70.9814 29.9836C70.6384 29.2372 69.9693 28.8127 68.9013 28.8054C68.0254 28.7995 67.1709 29.1657 66.5429 29.7495L66.548 28.9935L65.132 28.9839L65.1308 29.1639C65.5508 29.1667 66.0411 29.4221 66.0373 29.9741L66.0104 33.946C66.0067 34.498 65.513 34.7466 65.093 34.7438L65.0918 34.9238L67.4077 34.9395L67.4089 34.7595C67.001 34.7567 66.5107 34.5014 66.5144 33.9494L66.5398 30.2055C67.0371 29.4288 67.8805 28.9305 68.9004 28.9374C69.8724 28.944 70.7695 29.3821 70.7551 31.5061C70.7491 32.382 70.7429 33.306 70.7383 33.978C70.7346 34.53 70.2409 34.7787 69.8209 34.7758L69.8197 34.9558L72.1356 34.9715L72.1368 34.7915C71.7288 34.7887 71.2386 34.5334 71.2423 33.9814C71.2469 33.2974 71.2534 32.3495 71.2591 31.5095C71.262 31.0775 71.2167 30.6812 71.111 30.3444C71.6086 29.5078 72.4764 28.9617 73.5443 28.9689C74.5163 28.9755 75.4134 29.4136 75.399 31.5375C75.393 32.4135 75.3868 33.3375 75.3822 34.0095C75.3785 34.5615 74.8848 34.8101 74.4648 34.8073L74.4636 34.9873L76.7795 35.003L76.7807 34.823Z" fill="black"/>
<path d="M80.99 29.7487C81.1904 29.7871 81.373 29.6633 81.4114 29.463C81.4477 29.2744 81.3239 29.0918 81.1235 29.0534C80.935 29.0171 80.7406 29.1387 80.7044 29.3272C80.6659 29.5276 80.8015 29.7124 80.99 29.7487ZM80.9768 35.9901C80.5643 35.9109 80.1287 35.5707 80.2328 35.0286L81.1673 30.1615L79.7885 29.8967L79.7546 30.0735C80.1671 30.1527 80.5909 30.4907 80.4868 31.0328L79.7378 34.9335C79.6337 35.4756 79.1148 35.6326 78.7023 35.5534L78.6684 35.7302L80.9428 36.1669L80.9768 35.9901Z" fill="black"/>
<path d="M90.0879 32.5129C88.7453 32.0629 87.8342 32.327 87.4088 32.5388L87.6757 31.7424L86.3445 31.2962L86.2873 31.4669C86.6742 31.5965 87.0606 31.9918 86.8852 32.5152L85.5886 36.3837C85.4132 36.9071 84.8666 36.9897 84.4798 36.86L84.4226 37.0307L86.6185 37.7667L86.6757 37.596C86.2775 37.4626 85.8911 37.0673 86.0665 36.5439L87.2525 33.0053C87.9744 32.4373 88.9271 32.2757 89.7236 32.5426C90.429 32.7791 90.6593 33.4891 90.6593 33.4891L90.8614 32.886C90.8614 32.886 90.6113 32.6883 90.0879 32.5129Z" fill="black"/>
<path d="M97.0034 41.3866L98.3355 38.8603C99.0239 37.5546 98.6022 36.4505 97.4451 35.8405C96.32 35.2472 95.1079 35.6934 95.1023 35.704L95.3764 36.1877C95.382 36.1771 96.3277 35.3869 97.3892 35.9466C98.1959 36.372 98.6134 37.1754 97.8578 38.6084L97.5556 39.1816C97.4191 38.5399 96.992 37.9349 96.3445 37.5934C95.2405 37.0114 93.7157 37.2791 93.1784 38.2981C92.5907 39.4127 93.1755 40.6706 94.3856 41.3087C95.0331 41.6501 95.7736 41.6607 96.3858 41.4001L96.0668 42.0052L97.4043 42.7104L97.4882 42.5511C97.0955 42.3441 96.746 41.8749 97.0034 41.3866ZM94.4472 41.1919C93.5024 40.6938 93.1971 39.4204 93.656 38.55C94.1654 37.584 95.2427 37.1617 96.2829 37.7102C96.9517 38.0628 97.3726 38.7053 97.4492 39.3833L96.4866 41.2091C95.8838 41.5289 95.1159 41.5445 94.4472 41.1919Z" fill="black"/>
<path d="M106.88 50.3899C105.747 49.2994 105.847 47.3625 106.937 46.2303C107.162 45.997 107.413 45.8056 107.682 45.6478L111.77 49.5854C112.408 48.3343 112.281 46.9789 111.183 45.9216C109.93 44.7145 107.79 44.6188 106.574 45.8807C105.292 47.2117 105.465 49.1943 106.796 50.4764C108.343 51.9665 110.142 51.0332 110.142 51.0332L110.08 50.8731C109.037 51.3849 107.787 51.264 106.88 50.3899ZM111.092 46.0167C111.965 46.8575 111.945 48.0375 111.456 49.116L107.791 45.5863C108.866 45.006 110.158 45.1176 111.092 46.0167Z" fill="black"/>
<path d="M118.29 54.7466L118.155 54.8463C118.404 55.1844 118.446 55.5856 117.821 55.7484C117.821 55.7484 113.003 57.0192 112.888 57.0447L115.613 52.7542C115.951 52.2217 116.246 52.2578 116.417 52.4896L116.552 52.3899L115.494 50.9339L115.349 51.0407C115.598 51.3788 115.568 51.8634 115.293 52.3195L112.457 56.8252L112.657 57.0956C111.76 57.2946 109.974 57.5824 109.533 56.9835C109.241 56.5875 109.459 55.9941 109.459 55.9941L108.708 55.9663C108.708 55.9663 108.501 56.6558 108.871 57.1581C109.441 57.9308 111.229 57.6263 112.763 57.2405L117.935 55.903C118.497 55.7564 118.86 55.8026 119.18 56.2372L119.315 56.1375L118.29 54.7466Z" fill="black"/>
<path d="M117.198 64.8614C116.491 63.4573 117.227 61.6628 118.631 60.9559C118.92 60.8102 119.22 60.7128 119.526 60.6529L122.078 65.7227C123.095 64.7539 123.424 63.4328 122.739 62.0716C121.957 60.5174 119.969 59.7179 118.404 60.5058C116.753 61.3368 116.26 63.2648 117.091 64.9154C118.057 66.8339 120.063 66.5493 120.063 66.5493L120.057 66.3776C118.904 66.515 117.764 65.9868 117.198 64.8614ZM122.621 62.1309C123.166 63.2135 122.756 64.3201 121.937 65.1757L119.649 60.6311C120.856 60.44 122.038 60.9733 122.621 62.1309Z" fill="black"/>
<path d="M126.445 71.9362C126.02 70.5854 125.271 70.0033 124.849 69.7835L125.651 69.5316L125.23 68.1922L125.058 68.2462C125.18 68.6354 125.088 69.1803 124.561 69.3459L120.669 70.5695C120.142 70.735 119.754 70.3412 119.632 69.952L119.46 70.006L120.155 72.2154L120.326 72.1614C120.2 71.7608 120.293 71.2158 120.82 71.0503L124.38 69.9311C125.264 70.1815 125.954 70.8576 126.206 71.6589C126.43 72.3686 125.99 72.9721 125.99 72.9721L126.597 72.7814C126.597 72.7814 126.61 72.4628 126.445 71.9362Z" fill="black"/>
<path d="M128.19 80.3487C127.955 78.6247 126.334 77.223 124.598 77.4601C122.767 77.7102 121.674 79.3733 121.925 81.2044C122.16 82.9284 123.781 84.33 125.505 84.0945C127.336 83.8445 128.44 82.1797 128.19 80.3487ZM122.043 81.1881C121.831 79.6306 123.109 78.1722 124.667 77.9595C126.331 77.7322 127.834 78.7139 128.06 80.3665C128.272 81.9241 126.994 83.3825 125.436 83.5952C123.784 83.8209 122.271 82.8527 122.043 81.1881Z" fill="black"/>
<path d="M128.584 91.1333C128.666 89.3952 127.328 87.7222 125.577 87.6395C123.732 87.5523 122.354 88.9889 122.267 90.8348C122.185 92.5729 123.523 94.2459 125.262 94.328C127.107 94.4152 128.497 92.9792 128.584 91.1333ZM122.387 90.8405C122.461 89.2702 123.983 88.0687 125.554 88.1429C127.232 88.2222 128.531 89.4609 128.452 91.127C128.378 92.6973 126.856 93.8988 125.285 93.8246C123.619 93.7459 122.308 92.5186 122.387 90.8405Z" fill="black"/>
<path d="M119.059 108.399C119.17 107.994 119.539 107.597 120.071 107.742C120.731 107.921 121.646 108.17 122.457 108.39C124.066 108.827 125.239 108.4 125.674 106.802C125.932 105.852 125.737 104.83 125.221 104.03C126.03 103.889 126.611 103.351 126.891 102.32C127.121 101.475 126.986 100.555 126.582 99.7991L127.311 99.9973L127.683 98.6309L127.509 98.5837C127.399 98.989 127.027 99.3977 126.494 99.2529L122.661 98.2114C122.128 98.0666 122.014 97.5258 122.124 97.1205L121.95 97.0733L121.343 99.3082L121.517 99.3554C121.624 98.9617 121.996 98.553 122.529 98.6977L126.142 99.6795C126.765 100.359 127.032 101.302 126.764 102.286C126.509 103.224 125.856 103.979 123.807 103.422C122.961 103.192 122.07 102.95 121.421 102.774C120.888 102.629 120.774 102.088 120.884 101.683L120.711 101.636L120.103 103.871L120.277 103.918C120.384 103.524 120.756 103.116 121.289 103.26C121.949 103.44 122.864 103.688 123.674 103.909C124.091 104.022 124.486 104.079 124.839 104.063C125.52 104.758 125.826 105.737 125.546 106.767C125.291 107.705 124.639 108.461 122.589 107.904C121.744 107.674 120.852 107.432 120.203 107.255C119.671 107.111 119.557 106.57 119.667 106.165L119.493 106.117L118.886 108.352L119.059 108.399Z" fill="black"/>
<path d="M108.447 124.738C108.695 124.399 109.181 124.16 109.627 124.486C110.179 124.889 110.944 125.449 111.623 125.944C112.969 126.929 114.218 126.949 115.195 125.612C115.775 124.818 115.96 123.793 115.763 122.862C116.569 123.02 117.305 122.725 117.935 121.863C118.452 121.156 118.655 120.249 118.548 119.398L119.158 119.844L119.994 118.701L119.849 118.595C119.601 118.934 119.107 119.182 118.661 118.856L115.455 116.512C115.009 116.187 115.096 115.641 115.344 115.302L115.199 115.196L113.832 117.065L113.977 117.172C114.218 116.842 114.712 116.594 115.157 116.919L118.18 119.129C118.519 119.986 118.431 120.962 117.829 121.785C117.255 122.57 116.375 123.042 114.66 121.788C113.953 121.271 113.207 120.726 112.665 120.33C112.219 120.004 112.306 119.458 112.554 119.119L112.409 119.013L111.042 120.882L111.187 120.989C111.428 120.659 111.922 120.411 112.367 120.736C112.92 121.14 113.685 121.699 114.363 122.195C114.712 122.45 115.06 122.645 115.395 122.756C115.783 123.649 115.718 124.672 115.088 125.534C114.515 126.319 113.635 126.791 111.92 125.537C111.213 125.021 110.467 124.475 109.924 124.079C109.479 123.753 109.566 123.207 109.813 122.868L109.668 122.762L108.301 124.632L108.447 124.738Z" fill="black"/>
<path d="M110.103 131.119C109.954 131.259 109.948 131.479 110.088 131.628C110.22 131.767 110.44 131.774 110.589 131.634C110.728 131.502 110.743 131.273 110.611 131.134C110.471 130.985 110.242 130.987 110.103 131.119ZM105.047 127.459C105.352 127.171 105.883 127.016 106.262 127.418L109.664 131.021L110.685 130.058L110.561 129.927C110.256 130.215 109.734 130.361 109.355 129.96L106.628 127.072C106.249 126.67 106.425 126.158 106.731 125.869L106.607 125.738L104.923 127.328L105.047 127.459Z" fill="black"/>
<path d="M102.541 136.884C103.691 136.058 104.01 135.164 104.086 134.695L104.577 135.377L105.717 134.558L105.612 134.412C105.28 134.65 104.734 134.732 104.412 134.284L102.031 130.971C101.709 130.522 101.962 130.03 102.293 129.792L102.188 129.646L100.307 130.998L100.412 131.144C100.753 130.899 101.3 130.816 101.622 131.265L103.799 134.295C103.838 135.213 103.412 136.081 102.73 136.571C102.126 137.005 101.415 136.777 101.415 136.777L101.786 137.293C101.786 137.293 102.093 137.206 102.541 136.884Z" fill="black"/>
<path d="M91.2989 137.307L92.5698 139.864C93.2266 141.186 94.369 141.489 95.5403 140.907C96.6794 140.341 97.026 139.097 97.0207 139.086L96.468 139.026C96.4734 139.037 96.5616 140.266 95.4869 140.8C94.6702 141.206 93.7743 141.075 93.0534 139.624L92.7651 139.044C93.3655 139.308 94.106 139.315 94.7616 138.99C95.8792 138.434 96.5535 137.041 96.0408 136.009C95.4802 134.881 94.1177 134.62 92.8926 135.228C92.2371 135.554 91.7955 136.149 91.649 136.798L91.3447 136.185L89.9906 136.858L90.0707 137.019C90.4683 136.822 91.0533 136.812 91.2989 137.307ZM92.9513 135.347C93.9078 134.871 95.1194 135.368 95.5573 136.249C96.0432 137.227 95.756 138.348 94.7028 138.871C94.0258 139.208 93.2585 139.174 92.6636 138.839L91.7451 136.991C91.8381 136.315 92.2743 135.683 92.9513 135.347Z" fill="black"/>
</svg>
