<svg width="218" height="68" viewBox="0 0 218 68" fill="none" xmlns="http://www.w3.org/2000/svg">
<g clip-path="url(#clip0_168_159)">
<path d="M5.33315 62.2865L5.05535 62.372C4.36366 62.5926 3.7797 62.3435 3.52268 61.5069C3.26566 60.6722 3.60394 60.1322 4.29374 59.9154L4.57155 59.8299C5.26323 59.6112 5.8453 59.8622 6.10421 60.6969C6.36123 61.5316 6.02295 62.0716 5.33315 62.2865Z" fill="#C9977B"/>
<path d="M80.0031 12.4374L79.7234 12.5191C79.0317 12.7321 78.4477 12.4944 78.1926 11.6958C77.9375 10.8972 78.2776 10.38 78.9693 10.169L79.249 10.0872C79.9407 9.87616 80.5228 10.1138 80.7798 10.9124C81.0349 11.711 80.6947 12.2282 80.0031 12.4354V12.4374Z" fill="#C9977B"/>
<path d="M3.86473 51.4939C1.28698 51.3019 -0.14175 49.8625 0.0113279 47.7672C0.160626 45.7327 1.80858 44.5671 4.12553 44.7382L4.50539 44.7668L4.0764 50.6212L4.4865 50.6516C6.17413 50.7771 7.40065 49.9044 7.5216 48.252C7.60475 47.1188 7.09449 46.2194 6.0872 45.7137L6.54265 45.1242C7.66712 45.6965 8.36258 46.8469 8.25297 48.3509C8.098 50.4596 6.46139 51.686 3.86662 51.4958L3.86473 51.4939ZM3.43007 50.5718L3.79481 45.6167L3.67764 45.6091C1.99189 45.4836 0.820184 46.3753 0.716242 47.8204C0.600961 49.3682 1.67251 50.4406 3.37337 50.568L3.43196 50.5718H3.43007Z" fill="#C9977B"/>
<path d="M12.8018 39.4484L12.1158 39.1841L12.5902 37.9425L10.8647 36.4365L2.24892 36.292L2.5494 35.5067L9.98219 35.6988L10.0086 35.6303L4.37122 30.7304L4.66604 29.9565L12.8 37.1039C13.3197 37.5584 13.4028 37.8759 13.1288 38.5927L12.8018 39.4484Z" fill="#C9977B"/>
<path d="M11.8796 25.0704C9.83856 23.4732 9.44358 21.4786 10.7249 19.8206C11.9703 18.2101 13.983 18.1569 15.818 19.5905L16.1185 19.8263L12.5373 24.4581L12.8623 24.7129C14.1966 25.7568 15.699 25.7149 16.7082 24.4087C17.4036 23.5093 17.4754 22.4788 16.9123 21.4957L17.6153 21.26C18.2333 22.3609 18.1823 23.7071 17.2619 24.8954C15.9692 26.563 13.932 26.6714 11.8796 25.0666V25.0704ZM12.027 24.0607L15.0583 20.14L14.9657 20.0678C13.6334 19.0239 12.1669 19.1133 11.2824 20.256C10.3356 21.4824 10.6342 22.9712 11.9798 24.0246L12.0251 24.0626L12.027 24.0607Z" fill="#C9977B"/>
<path d="M24.4811 17.3333L19.8056 10.9332L20.4784 10.4331L21.3137 11.5777L21.3742 11.534C21.1682 10.7525 21.344 9.79422 22.4344 8.98802L22.8842 8.65527L23.3718 9.32267L22.8029 9.74478C21.7465 10.5244 21.3402 11.6139 21.9582 12.4619L25.1539 16.8351L24.4792 17.3352L24.4811 17.3333Z" fill="#C9977B"/>
<path d="M31.3337 8.37012C30.4209 5.93632 31.1391 4.00259 33.0913 3.26295C35.0567 2.51569 36.8672 3.48731 37.78 5.92111C38.6985 8.36822 37.9803 10.3001 36.0149 11.0473C34.0627 11.7889 32.256 10.8172 31.3356 8.37012H31.3337ZM37.1186 6.70829L36.7708 5.78231C36.1113 4.02541 34.8281 3.40745 33.3559 3.96647C31.9139 4.51597 31.3432 5.83745 32.0027 7.59435L32.3505 8.52224C33.0081 10.2772 34.3065 10.8895 35.7503 10.3419C37.2206 9.78287 37.7781 8.46519 37.1204 6.70829H37.1186Z" fill="#C9977B"/>
<path d="M45.3243 4.33156C45.1939 1.73234 46.4639 0.114242 48.5484 0.00586194C50.6461 -0.100617 52.0748 1.38058 52.2052 3.9798C52.3394 6.59233 51.0657 8.21233 48.966 8.31881C46.8834 8.42529 45.4547 6.94409 45.3224 4.33156H45.3243ZM51.3378 4.52741L51.2868 3.53868C51.1923 1.66389 50.1566 0.680861 48.5881 0.76072C47.0459 0.838678 46.101 1.92248 46.1955 3.79727L46.2465 4.786C46.341 6.66269 47.3899 7.64381 48.932 7.56395C50.5006 7.48599 51.4323 6.40029 51.3378 4.52551V4.52741Z" fill="#C9977B"/>
<path d="M59.3772 8.53568L61.7981 0.979492L62.5956 1.23998L62.2177 2.42266L62.2744 2.43977C62.8111 1.82182 63.601 1.38069 64.8313 1.77808C65.9218 2.13174 66.6456 2.90942 66.6569 4.12442L66.6985 4.13773C67.2674 3.32773 68.2425 2.8828 69.5711 3.31252C71.1642 3.8297 71.7369 5.13216 71.1416 6.98984L69.5862 11.8441L68.8019 11.5893L70.3081 6.89097C70.807 5.32991 70.4045 4.3754 69.1175 3.959C68.0687 3.61864 66.9555 3.86393 66.5813 5.03139L64.8861 10.3211L64.0886 10.0625L65.5929 5.36223C66.0919 3.80118 65.6893 2.84667 64.4175 2.43597C63.3837 2.09942 62.2422 2.3352 61.8718 3.48745L60.1729 8.79237L59.3753 8.53378L59.3772 8.53568Z" fill="#C9977B"/>
<path d="M214.859 58.499C214.765 55.1488 214.67 49.3057 214.67 41.1658C214.67 36.1917 211.556 32.5524 206.884 31.212C203.418 30.2175 200.073 30.2232 196.775 31.7386C193.978 33.024 190.824 33.7161 187.781 34.0374C187.781 34.0374 191.803 37.3915 191.809 37.3972C192.098 37.6387 194.256 36.3781 194.602 36.1765C195.32 35.7601 195.985 35.2639 196.639 34.7543C197.3 34.239 197.958 33.7218 198.667 33.2731C200.029 32.4098 201.16 31.7501 202.828 32.022C207.375 32.7616 210.671 36.5131 210.671 41.1658V44.7081C207.816 44.1339 205.436 44.0388 202.675 44.0388C192.967 44.0388 184.497 48.0622 184.497 55.0518C184.497 62.0414 190.111 66.0647 198.678 66.0647C203.246 66.0647 208.006 63.4788 210.577 60.3187C210.577 62.1383 210.48 64.4352 210.195 65.9678L210.577 66.0647C212.574 64.5322 215.05 63.4788 218 62.9046V62.5224C216.668 62.4254 214.954 61.277 214.859 58.499ZM210.577 58.2119C207.53 61.9463 203.913 64.1481 198.678 64.1481C192.491 64.1481 189.159 60.891 189.159 55.0518C189.159 48.3474 194.585 45.5695 202.675 45.5695C205.816 45.5695 207.912 45.6664 210.671 46.3357C210.671 51.6977 210.671 55.337 210.577 58.21V58.2119Z" fill="#C9977B"/>
<path d="M96.853 65.0474C98.0889 66.1692 100.319 67.7169 102.364 67.7302C100.311 68.0478 99.0206 68.1105 96.9891 67.7835C91.1381 66.8423 90.1761 61.5336 90.2574 56.647C90.3103 53.4393 90.3462 50.2335 90.3462 47.0258C90.3462 37.4504 87.2998 33.0448 80.6362 33.0448C73.9725 33.0448 67.9779 37.6424 67.9779 47.0258V49.4197C67.9779 51.8136 68.0743 58.0388 68.1688 61.391C68.2633 64.1689 69.7865 64.9333 71.0244 65.4124L70.928 65.7965C69.4067 65.6045 67.8816 65.5094 65.9804 65.5094C64.0792 65.5094 62.4577 65.6045 60.9364 65.7965L60.84 65.4124C62.1723 64.9333 63.6955 64.1689 63.79 61.391C63.8864 58.0388 63.9828 51.8136 63.9828 47.0258C63.9828 37.4504 60.9364 33.0448 54.2727 33.0448C48.7525 33.0448 43.7085 36.589 41.6145 42.5271V47.986C41.6145 51.8155 41.709 58.0407 41.8035 61.3929C41.8999 64.1708 43.4231 64.9352 44.661 65.4143L44.5646 65.7984C43.0414 65.6064 41.5181 65.5113 39.6169 65.5113C37.7158 65.5113 36.0943 65.6064 34.5729 65.7984L34.4765 65.4143C35.8089 64.9352 37.3321 64.1708 37.4266 61.3929C37.523 58.0407 37.6194 51.8155 37.6194 47.986C37.6194 45.8793 37.523 42.1449 37.4266 38.7927C37.3321 36.0148 35.9053 35.2485 34.2857 34.7694V34.3872C37.2376 33.813 39.8059 32.6626 41.709 31.2271L42.0908 31.324C41.8035 34.9614 41.6145 38.5056 41.6145 39.4639C43.2322 35.3455 48.5616 31.2271 54.2727 31.2271C61.9833 31.2271 65.695 35.0584 67.3127 40.8044C69.0268 35.1535 74.0708 31.2271 80.6381 31.2271C90.5371 31.2271 94.3451 37.5473 94.3451 47.0277C94.3451 50.2925 94.3697 53.5572 94.3263 56.8219C94.2903 59.4819 94.6664 63.0623 96.8549 65.0493L96.853 65.0474Z" fill="#C9977B"/>
<path d="M174.588 34.3624C169.546 34.6096 168.749 32.6929 163.646 32.6302C159.267 32.577 155.969 35.9196 154.157 42.7951V48.2541C154.157 52.0835 154.252 58.3087 154.346 61.6609C154.442 64.4388 155.966 65.2032 157.203 65.6823L157.107 66.0664C155.584 65.8744 154.061 65.7793 152.159 65.7793C150.258 65.7793 148.637 65.8744 147.115 66.0664L147.019 65.6823C148.351 65.2032 149.875 64.4388 149.969 61.6609C150.066 58.3087 150.162 52.0835 150.162 48.2541C150.162 46.1473 150.066 42.4129 149.969 39.0608C149.875 36.2828 148.448 35.5165 146.828 35.0374V34.6552C149.78 34.081 152.348 32.9306 154.252 31.4951L154.633 31.592C154.346 35.2294 154.219 38.2983 154.219 39.1596C151.814 39.3422 151.041 39.9468 151.859 38.8136C153.121 37.0643 154.622 35.4747 156.332 34.1627C159.832 31.476 163.618 30.5577 167.951 30.8448C171.018 31.0482 174.212 30.571 177.17 29.7876" fill="#C9977B"/>
<path d="M126.75 66.0644C125.227 65.88 123.704 65.7906 121.803 65.7906C119.902 65.7906 118.28 65.8819 116.759 66.0644L116.662 65.6974C117.995 65.2392 119.518 64.5072 119.612 61.8471C119.709 58.6375 119.805 52.6766 119.805 49.0088C119.805 46.9914 119.709 43.4149 119.612 40.2053C119.518 37.5452 118.091 36.8113 116.472 36.353V35.988C119.423 35.4366 121.992 34.3376 123.895 32.9609L124.277 33.0541C123.895 38.1879 123.8 43.3236 123.8 49.0088C123.8 52.6766 123.895 58.6375 123.989 61.8471C124.086 64.5072 125.609 65.2392 126.847 65.6974L126.75 66.0644Z" fill="#C9977B"/>
<path d="M121.529 27.755C123.124 27.755 124.416 26.4543 124.416 24.8497C124.416 23.2451 123.124 21.9443 121.529 21.9443C119.934 21.9443 118.641 23.2451 118.641 24.8497C118.641 26.4543 119.934 27.755 121.529 27.755Z" fill="#C9977B"/>
</g>
<defs>
<clipPath id="clip0_168_159">
<rect width="218" height="68" fill="white"/>
</clipPath>
</defs>
</svg>
