<svg width="38" height="38" viewBox="0 0 38 38" fill="none" xmlns="http://www.w3.org/2000/svg">
<path d="M19 0.333332C13.9304 0.333332 13.2947 0.354839 11.3037 0.445645C9.31687 0.536285 7.95994 0.851885 6.77257 1.31325C5.54507 1.79029 4.50407 2.4286 3.46636 3.46632C2.42859 4.50404 1.79027 5.54514 1.31329 6.77264C0.85181 7.95996 0.536321 9.31689 0.445571 11.3037C0.354764 13.2948 0.333313 13.9305 0.333313 19.0001C0.333313 24.0695 0.354764 24.7052 0.445571 26.6963C0.536321 28.6831 0.85181 30.04 1.31329 31.2274C1.79033 32.4549 2.42864 33.4958 3.46636 34.5337C4.50413 35.5714 5.54507 36.2097 6.77257 36.6867C7.95994 37.1481 9.31687 37.4637 11.3037 37.5544C13.2947 37.6452 13.9304 37.6667 19 37.6667C24.0695 37.6667 24.7052 37.6452 26.6962 37.5544C28.6831 37.4637 30.04 37.1481 31.2273 36.6867C32.4548 36.2097 33.4958 35.5714 34.5337 34.5337C35.5714 33.4958 36.2097 32.4549 36.6867 31.2274C37.1481 30.04 37.4637 28.6831 37.5543 26.6963C37.6451 24.7052 37.6666 24.0695 37.6666 19.0001C37.6666 13.9305 37.6451 13.2948 37.5543 11.3037C37.4637 9.31689 37.1481 7.95996 36.6867 6.77264C36.2097 5.54514 35.5714 4.50404 34.5337 3.46632C33.4958 2.4286 32.4548 1.79029 31.2273 1.31325C30.04 0.851885 28.6831 0.536285 26.6962 0.445645C24.7052 0.354839 24.0695 0.333332 19 0.333332ZM19 3.69667C23.9842 3.69667 24.5746 3.71573 26.5429 3.80554C28.3629 3.88851 29.3513 4.19261 30.009 4.44824C30.8804 4.7869 31.5022 5.19136 32.1554 5.84457C32.8086 6.49778 33.2131 7.11964 33.5517 7.99091C33.8074 8.64868 34.1115 9.6371 34.1944 11.4571C34.2842 13.4254 34.3033 14.0158 34.3033 19C34.3033 23.9842 34.2842 24.5746 34.1944 26.5429C34.1115 28.363 33.8074 29.3513 33.5517 30.009C33.2131 30.8804 32.8086 31.5022 32.1554 32.1554C31.5022 32.8086 30.8803 33.2131 30.0091 33.5518C29.3513 33.8074 28.3629 34.1115 26.5429 34.1945C24.5749 34.2843 23.9846 34.3033 19 34.3033C14.0154 34.3033 13.4252 34.2843 11.457 34.1944C9.63703 34.1115 8.64866 33.8074 7.99095 33.5518C7.11957 33.2131 6.49776 32.8086 5.84461 32.1554C5.1914 31.5022 4.78688 30.8804 4.44822 30.0091C4.19259 29.3513 3.88855 28.3629 3.80552 26.5429C3.71571 24.5746 3.69665 23.9842 3.69665 19C3.69665 14.0158 3.71571 13.4254 3.80552 11.4571C3.88855 9.63705 4.19259 8.64868 4.44822 7.99097C4.78688 7.11959 5.1914 6.49778 5.84455 5.84463C6.49776 5.19136 7.11962 4.7869 7.9909 4.44824C8.64866 4.19261 9.63708 3.88851 11.457 3.80554C13.4254 3.71573 14.0158 3.69667 19 3.69667" fill="white"/>
<path d="M19.0001 25.2222C15.5635 25.2222 12.7778 22.4365 12.7778 19.0001C12.7778 15.5635 15.5635 12.7778 19.0001 12.7778C22.4365 12.7778 25.2222 15.5635 25.2222 19.0001C25.2222 22.4365 22.4365 25.2222 19.0001 25.2222ZM19.0001 9.41442C13.706 9.41442 9.41443 13.706 9.41443 19.0001C9.41443 24.294 13.706 28.5856 19.0001 28.5856C24.294 28.5856 28.5856 24.294 28.5856 19.0001C28.5856 13.706 24.294 9.41442 19.0001 9.41442ZM31.2044 9.03569C31.2044 10.2729 30.2014 11.2757 28.9643 11.2757C27.7273 11.2757 26.7243 10.2729 26.7243 9.03569C26.7243 7.79858 27.7273 6.79565 28.9643 6.79565C30.2014 6.79565 31.2044 7.79858 31.2044 9.03569Z" fill="white"/>
</svg>
