<svg width="249" height="77" viewBox="0 0 249 77" fill="none" xmlns="http://www.w3.org/2000/svg">
<g clip-path="url(#clip0_168_140)">
<path d="M6.09172 70.5301L5.7744 70.627C4.98436 70.8767 4.31735 70.5947 4.02379 69.6473C3.73022 68.7021 4.11661 68.0907 4.90449 67.8452L5.2218 67.7483C6.01185 67.5007 6.67669 67.7849 6.97242 68.7301C7.26599 69.6753 6.8796 70.2868 6.09172 70.5301Z" fill="white"/>
<path d="M91.3798 14.0832L91.0604 14.1758C90.2703 14.417 89.6033 14.1478 89.3119 13.2435C89.0205 12.3393 89.409 11.7536 90.1991 11.5146L90.5186 11.422C91.3086 11.1831 91.9735 11.4522 92.267 12.3565C92.5584 13.2608 92.1699 13.8464 91.3798 14.0811V14.0832Z" fill="white"/>
<path d="M4.41451 58.3093C1.47019 58.0919 -0.161702 56.462 0.0131437 54.0893C0.183672 51.7855 2.06596 50.4657 4.7124 50.6595L5.14627 50.6918L4.65627 57.3211L5.12469 57.3555C7.05231 57.4976 8.45324 56.5093 8.59139 54.6383C8.68636 53.3551 8.10354 52.3367 6.95302 51.764L7.47324 51.0965C8.7576 51.7446 9.55196 53.0472 9.42676 54.7503C9.24976 57.138 7.38042 58.5268 4.41667 58.3115L4.41451 58.3093ZM3.91804 57.2651L4.33464 51.6542L4.20081 51.6456C2.27535 51.5035 0.937021 52.5133 0.818298 54.1496C0.686624 55.9022 1.91055 57.1165 3.85328 57.2608L3.92019 57.2651H3.91804Z" fill="white"/>
<path d="M14.6225 44.6697L13.8389 44.3704L14.3807 42.9644L12.4099 41.2592L2.56891 41.0956L2.91212 40.2064L11.4019 40.4238L11.4321 40.3463L4.99301 34.7979L5.32975 33.9216L14.6203 42.0149C15.2139 42.5295 15.3089 42.8891 14.9959 43.7008L14.6225 44.6697Z" fill="white"/>
<path d="M13.5691 28.3882C11.2378 26.5796 10.7867 24.3211 12.2502 22.4436C13.6727 20.6199 15.9716 20.5597 18.0676 22.1831L18.4108 22.45L14.3203 27.6949L14.6916 27.9834C16.2155 29.1654 17.9316 29.1181 19.0843 27.6389C19.8787 26.6205 19.9607 25.4536 19.3174 24.3404L20.1204 24.0734C20.8263 25.3201 20.768 26.8444 19.7168 28.1901C18.2403 30.0783 15.9133 30.2011 13.5691 28.3839V28.3882ZM13.7375 27.2449L17.1998 22.8053L17.0941 22.7235C15.5723 21.5414 13.8972 21.6426 12.887 22.9366C11.8055 24.3254 12.1466 26.0112 13.6835 27.204L13.7353 27.2471L13.7375 27.2449Z" fill="white"/>
<path d="M27.9626 19.6274L22.6222 12.3802L23.3907 11.8139L24.3448 13.1101L24.4139 13.0605C24.1786 12.1756 24.3793 11.0905 25.6248 10.1776L26.1386 9.80079L26.6955 10.5565L26.0457 11.0345C24.8391 11.9173 24.375 13.151 25.0809 14.1112L28.731 19.0633L27.9604 19.6295L27.9626 19.6274Z" fill="white"/>
<path d="M35.7896 9.47783C34.747 6.72191 35.5673 4.53225 37.7971 3.69471C40.0421 2.84855 42.11 3.94877 43.1526 6.70469C44.2017 9.47568 43.3814 11.6632 41.1365 12.5093C38.9066 13.349 36.843 12.2488 35.7918 9.47783H35.7896ZM42.3971 7.59606L41.9999 6.54751C41.2466 4.55808 39.7809 3.85834 38.0993 4.49134C36.4523 5.11357 35.8004 6.60995 36.5538 8.59938L36.951 9.65008C37.7021 11.6374 39.1851 12.3306 40.8343 11.7106C42.5136 11.0776 43.1504 9.58549 42.3992 7.59606H42.3971Z" fill="white"/>
<path d="M51.7697 4.90473C51.6207 1.96149 53.0713 0.129233 55.4522 0.00650831C57.8483 -0.114063 59.4802 1.56317 59.6291 4.50641C59.7824 7.46472 58.3275 9.29913 55.9293 9.4197C53.5505 9.54027 51.9186 7.86304 51.7675 4.90473H51.7697ZM58.6383 5.12649L58.58 4.0069C58.4721 1.88398 57.2892 0.770846 55.4976 0.861274C53.7362 0.94955 52.6569 2.1768 52.7648 4.29972L52.8231 5.41931C52.931 7.54438 54.129 8.65536 55.8904 8.56493C57.6821 8.47666 58.7463 7.24726 58.6383 5.12434V5.12649Z" fill="white"/>
<path d="M67.8209 9.66515L70.5861 1.10888L71.497 1.40384L71.0653 2.74305L71.1301 2.76243C71.7431 2.06268 72.6454 1.56317 74.0506 2.01316C75.2961 2.41363 76.1229 3.29423 76.1358 4.67004L76.1833 4.68511C76.8331 3.76791 77.9469 3.26409 79.4644 3.75068C81.2841 4.33632 81.9381 5.81116 81.2582 7.91471L79.4817 13.4115L78.5858 13.123L80.3062 7.80275C80.8761 6.03508 80.4163 4.95425 78.9463 4.48273C77.7483 4.09733 76.4769 4.37507 76.0495 5.69705L74.1132 11.6869L73.2023 11.3941L74.9206 6.07169C75.4904 4.30402 75.0306 3.22318 73.5779 2.75812C72.3972 2.37703 71.0934 2.64401 70.6703 3.94877L68.7297 9.95581L67.8188 9.663L67.8209 9.66515Z" fill="white"/>
<path d="M245.413 66.2412C245.305 62.4475 245.197 55.8311 245.197 46.6139C245.197 40.9815 241.639 36.8605 236.303 35.3426C232.344 34.2165 228.524 34.223 224.757 35.939C221.562 37.3944 217.96 38.1782 214.484 38.542C214.484 38.542 219.078 42.34 219.084 42.3465C219.415 42.6199 221.88 41.1924 222.275 40.9642C223.095 40.4927 223.855 39.9308 224.602 39.3537C225.357 38.7703 226.108 38.1846 226.918 37.6765C228.474 36.699 229.765 35.9519 231.671 36.2598C236.865 37.0973 240.629 41.3453 240.629 46.6139V50.625C237.368 49.9748 234.65 49.8671 231.496 49.8671C220.407 49.8671 210.733 54.423 210.733 62.3377C210.733 70.2523 217.146 74.8082 226.931 74.8082C232.148 74.8082 237.586 71.8801 240.521 68.3017C240.521 70.3622 240.411 72.9631 240.085 74.6984L240.521 74.8082C242.803 73.0729 245.631 71.8801 249 71.2298V70.7971C247.478 70.6873 245.521 69.3868 245.413 66.2412ZM240.521 65.9161C237.042 70.1447 232.91 72.6379 226.931 72.6379C219.864 72.6379 216.058 68.9497 216.058 62.3377C216.058 54.746 222.255 51.6004 231.496 51.6004C235.084 51.6004 237.478 51.7102 240.629 52.468C240.629 58.5397 240.629 62.6606 240.521 65.9139V65.9161Z" fill="white"/>
<path d="M110.626 73.6563C112.038 74.9266 114.585 76.6792 116.92 76.6943C114.576 77.0539 113.102 77.1249 110.781 76.7546C104.098 75.6888 103 69.6775 103.092 64.1441C103.153 60.5119 103.194 56.8818 103.194 53.2496C103.194 42.4068 99.7141 37.4181 92.103 37.4181C84.4918 37.4181 77.6447 42.6242 77.6447 53.2496V55.9603C77.6447 58.671 77.7548 65.7201 77.8627 69.516C77.9707 72.6616 79.7105 73.5272 81.1244 74.0697L81.0143 74.5047C79.2766 74.2872 77.5346 74.1795 75.3631 74.1795C73.1915 74.1795 71.3395 74.2872 69.6018 74.5047L69.4917 74.0697C71.0135 73.5272 72.7533 72.6616 72.8613 69.516C72.9714 65.7201 73.0815 58.671 73.0815 53.2496C73.0815 42.4068 69.6018 37.4181 61.9906 37.4181C55.6854 37.4181 49.9241 41.4314 47.5324 48.1555V54.3369C47.5324 58.6732 47.6403 65.7223 47.7482 69.5182C47.8583 72.6638 49.5981 73.5293 51.012 74.0719L50.9019 74.5068C49.1621 74.2893 47.4223 74.1817 45.2507 74.1817C43.0792 74.1817 41.2271 74.2893 39.4895 74.5068L39.3794 74.0719C40.9012 73.5293 42.641 72.6638 42.7489 69.5182C42.859 65.7223 42.9691 58.6732 42.9691 54.3369C42.9691 51.9513 42.859 47.7227 42.7489 43.9268C42.641 40.7812 41.0113 39.9135 39.1613 39.371V38.9382C42.5331 38.288 45.4666 36.9854 47.6403 35.3598L48.0763 35.4696C47.7482 39.5884 47.5324 43.6017 47.5324 44.6869C49.3801 40.0233 55.4673 35.3598 61.9906 35.3598C70.7977 35.3598 75.0371 39.6982 76.8849 46.2048C78.8427 39.8059 84.604 35.3598 92.1051 35.3598C103.412 35.3598 107.761 42.5166 107.761 53.2518C107.761 56.9486 107.789 60.6454 107.74 64.3422C107.699 67.3543 108.128 71.4085 110.628 73.6585L110.626 73.6563Z" fill="white"/>
<path d="M199.415 38.9102C193.656 39.1901 192.745 37.0198 186.917 36.9488C181.915 36.8885 178.149 40.6736 176.079 48.459V54.6405C176.079 58.9768 176.187 66.0259 176.294 69.8217C176.405 72.9674 178.144 73.8329 179.558 74.3755L179.448 74.8104C177.708 74.5929 175.969 74.4853 173.797 74.4853C171.625 74.4853 169.773 74.5929 168.036 74.8104L167.926 74.3755C169.447 73.8329 171.187 72.9674 171.295 69.8217C171.405 66.0259 171.515 58.9768 171.515 54.6405C171.515 52.2549 171.405 48.0263 171.295 44.2304C171.187 41.0848 169.558 40.2171 167.708 39.6745V39.2418C171.079 38.5916 174.013 37.289 176.187 35.6634L176.623 35.7732C176.294 39.892 176.15 43.367 176.15 44.3424C173.402 44.5491 172.519 45.2338 173.454 43.9505C174.896 41.9697 176.61 40.1697 178.563 38.6841C182.561 35.6419 186.885 34.6019 191.834 34.927C195.338 35.1574 198.986 34.617 202.364 33.7299" fill="white"/>
<path d="M144.775 74.8082C143.035 74.5994 141.295 74.4982 139.124 74.4982C136.952 74.4982 135.1 74.6015 133.362 74.8082L133.252 74.3927C134.774 73.8738 136.514 73.0449 136.622 70.0327C136.732 66.3984 136.842 59.6485 136.842 55.4953C136.842 53.2109 136.732 49.1609 136.622 45.5266C136.514 42.5144 134.884 41.6834 133.034 41.1645V40.7511C136.406 40.1267 139.339 38.8822 141.513 37.3234L141.949 37.4289C141.513 43.2422 141.405 49.0576 141.405 55.4953C141.405 59.6485 141.513 66.3984 141.621 70.0327C141.731 73.0449 143.471 73.8738 144.885 74.3927L144.775 74.8082Z" fill="white"/>
<path d="M138.811 31.4283C140.632 31.4283 142.109 29.9554 142.109 28.1384C142.109 26.3215 140.632 24.8486 138.811 24.8486C136.989 24.8486 135.512 26.3215 135.512 28.1384C135.512 29.9554 136.989 31.4283 138.811 31.4283Z" fill="white"/>
</g>
<defs>
<clipPath id="clip0_168_140">
<rect width="249" height="77" fill="white"/>
</clipPath>
</defs>
</svg>
