<svg width="24" height="20" viewBox="0 0 24 20" fill="none" xmlns="http://www.w3.org/2000/svg">
<path d="M21.0685 0.992676H2.93155C1.31516 0.992676 0 2.51223 0 4.37981V16.4309C0 18.2985 1.31516 19.818 2.93155 19.818H21.0685C22.6848 19.818 24 18.2985 24 16.4309V4.38018C24.0003 2.51223 22.6852 0.992676 21.0685 0.992676ZM19.636 3.2024L12 8.88653L4.36401 3.2024H19.636ZM21.0685 17.6087H2.93155C2.36959 17.6087 1.9125 17.0802 1.9125 16.4312V4.44279L11.41 11.4992C11.4227 11.5084 11.4364 11.5146 11.4495 11.5231C11.4632 11.5319 11.4772 11.5404 11.4913 11.5485C11.5649 11.5923 11.6408 11.6277 11.7182 11.6509C11.7262 11.6535 11.7342 11.6546 11.7421 11.6568C11.8272 11.68 11.9133 11.6943 11.9994 11.6943C11.9997 11.6943 12 11.6943 12 11.6943C12.0006 11.6943 12.001 11.6943 12.0013 11.6943C12.0873 11.6943 12.1734 11.6804 12.2585 11.6568C12.2665 11.6546 12.2744 11.6535 12.2824 11.6509C12.3599 11.6277 12.4354 11.5923 12.5094 11.5485C12.5234 11.5404 12.5374 11.5319 12.5511 11.5231C12.5642 11.5146 12.5779 11.5084 12.5906 11.4992L22.0881 4.44279V16.4309C22.0878 17.0802 21.6304 17.6087 21.0685 17.6087Z" fill="#403326"/>
</svg>
